<svg xmlns="http://www.w3.org/2000/svg" width="25" height="25" viewBox="0 0 25 25" fill="none">
<path d="M14.9706 20.9371C14.9706 20.5643 14.6684 20.2621 14.2956 20.2621H5.32353C5.04739 20.2621 4.82353 20.0382 4.82353 19.7621V5.46206C4.82353 5.18592 5.04739 4.96206 5.32353 4.96206H14.2956C14.6684 4.96206 14.9706 4.65985 14.9706 4.28706V4.28706C14.9706 3.91427 14.6684 3.61206 14.2956 3.61206H5.5C4.39543 3.61206 3.5 4.50749 3.5 5.61206V19.6121C3.5 20.7166 4.39543 21.6121 5.5 21.6121H14.2956C14.6684 21.6121 14.9706 21.3099 14.9706 20.9371V20.9371ZM13.3947 12.2521C13.0468 12.2521 12.7647 12.5341 12.7647 12.8821V12.8821C12.7647 13.23 13.0468 13.5121 13.3947 13.5121H18.9412L16.7698 15.7269C16.5056 15.9964 16.5056 16.4278 16.7698 16.6973V16.6973C17.0415 16.9744 17.4879 16.9744 17.7596 16.6973L20.8137 13.5821C21.1949 13.1933 21.1949 12.5708 20.8137 12.182L17.7596 9.06686C17.4879 8.7897 17.0415 8.7897 16.7698 9.06686V9.06686C16.5056 9.33637 16.5056 9.76775 16.7698 10.0373L18.9412 12.2521H13.3947Z" fill="#97A1AF"/>
</svg>