<svg width="103" height="40" viewBox="0 0 103 40" fill="none" xmlns="http://www.w3.org/2000/svg">
<g clip-path="url(#clip0_75_10303)">
<path d="M12.3483 8.19991V17.8623H1.63868V8.19991H3.66332V16.2426H6.03703V8.19991H7.94996V16.2426H10.3376V8.19991H12.3483ZM21.6768 17.8623H19.6521V13.9806C19.6521 12.6588 19.7499 11.4207 19.9454 10.2664L16.9014 17.8623H14.3881V8.19991H16.4127V12.1235C16.4127 12.9054 16.3848 13.557 16.329 14.0783C16.2824 14.5903 16.2126 15.1581 16.1195 15.7818L19.2193 8.19991H21.6768V17.8623ZM34.1313 12.9753C34.1313 14.3622 33.7311 15.4141 32.9305 16.1309C32.13 16.8384 31.0176 17.2154 29.5934 17.2619V18.3929H27.5967V17.2479C26.1538 17.1828 25.0368 16.8011 24.2455 16.103C23.4543 15.3955 23.0587 14.3669 23.0587 13.0171C23.0587 11.6302 23.459 10.5829 24.2595 9.87547C25.06 9.1587 26.1724 8.77705 27.5967 8.73051V7.68328H29.5934V8.74447C31.0362 8.80963 32.1532 9.19594 32.9445 9.9034C33.7357 10.6015 34.1313 11.6255 34.1313 12.9753ZM29.5096 15.9494C30.3939 15.8935 31.0362 15.6282 31.4365 15.1535C31.8367 14.6787 32.0369 13.9527 32.0369 12.9753C32.0369 12.0165 31.8321 11.2997 31.4225 10.825C31.0129 10.3502 30.3753 10.0896 29.5096 10.043V15.9494ZM25.1531 13.0171C25.1531 13.9759 25.3579 14.6927 25.7675 15.1674C26.1771 15.6422 26.8147 15.9028 27.6804 15.9494V10.043C26.7961 10.0989 26.1538 10.3642 25.7535 10.8389C25.3533 11.3137 25.1531 12.0397 25.1531 13.0171ZM41.428 8.19991L41.2046 9.80566H38.761V17.8623H36.7085V9.80566H34.1393V8.19991H41.428Z" fill="#9534D2"/>
<path d="M5.45058 24.2972C6.05564 24.2972 6.58158 24.3856 7.0284 24.5625C7.47522 24.73 7.91272 24.9907 8.34092 25.3444L7.32162 26.5313C6.7631 26.0751 6.17666 25.8471 5.56228 25.8471C4.87344 25.8471 4.32423 26.131 3.91465 26.6988C3.51438 27.2573 3.31424 28.137 3.31424 29.3378C3.31424 30.5107 3.51438 31.3811 3.91465 31.9489C4.32423 32.5074 4.8781 32.7867 5.57625 32.7867C5.93929 32.7867 6.26974 32.7215 6.56762 32.5912C6.8655 32.4516 7.17734 32.2561 7.50314 32.0048L8.45262 33.1916C8.1082 33.5453 7.68001 33.8386 7.16803 34.0713C6.66536 34.2947 6.10684 34.4064 5.49247 34.4064C4.62676 34.4064 3.86811 34.2109 3.2165 33.8199C2.5649 33.429 2.05757 32.8565 1.69454 32.1025C1.3315 31.3392 1.14998 30.4176 1.14998 29.3378C1.14998 28.2859 1.33615 27.383 1.7085 26.629C2.08084 25.8657 2.59282 25.2886 3.24443 24.8976C3.89603 24.4973 4.63142 24.2972 5.45058 24.2972ZM11.6681 24.5206V34.183H9.61559V24.5206H11.6681ZM21.0086 34.183H18.3696L15.2978 26.5173C15.3815 27.1782 15.4467 27.8019 15.4932 28.3883C15.5491 28.9655 15.577 29.645 15.577 30.4269V34.183H13.7199V24.5206H16.3031L19.4308 32.2002C19.2446 30.9529 19.1515 29.8079 19.1515 28.7653V24.5206H21.0086V34.183ZM28.8135 24.5206L28.5901 26.0146H25.0993V28.528H28.1433V30.008H25.0993V32.675H28.8414V34.183H23.0468V24.5206H28.8135ZM39.7929 34.183H37.7822L37.5728 30.2594C37.5076 29.0865 37.475 28.0905 37.475 27.2713C37.475 26.8338 37.4797 26.5173 37.489 26.3218L35.8553 33.1497H33.9145L32.1691 26.3079C32.2063 26.8757 32.2249 27.5133 32.2249 28.2208C32.2249 28.9748 32.2063 29.6683 32.1691 30.3013L31.9597 34.183H29.9629L30.7169 24.5206H33.328L34.9198 31.1809L36.4138 24.5206H39.0529L39.7929 34.183ZM46.4837 34.183L45.9391 32.0187H42.9091L42.3646 34.183H40.2283L43.2024 24.5206H45.7017L48.6619 34.183H46.4837ZM43.3001 30.4968H45.5482L44.4172 26.0426L43.3001 30.4968Z" fill="#9534D2"/>
<path d="M63.8061 19.5387H60.7041C59.3829 19.5387 58.3106 20.611 58.3106 21.9322C58.3106 23.2534 59.3829 24.3257 60.7041 24.3257H64.6789C65.3479 24.3257 65.932 24.7661 66.165 25.3933C66.9148 27.4119 68.0089 29.264 69.375 30.8775C70.0755 31.7041 69.4979 32.971 68.4144 32.971H65.2055C64.0598 32.971 63.0721 33.8519 63.0178 34.9975C62.9604 36.2198 63.9353 37.2299 65.1449 37.2299H80.8878C81.7239 37.3464 82.576 37.407 83.444 37.407C93.701 37.407 102.003 29.0249 101.871 18.7345C101.742 8.78545 93.6196 0.671458 83.6706 0.550187C82.276 0.532634 80.9165 0.671458 79.608 0.949105C76.4805 1.6129 73.2876 1.91927 70.0914 1.91927H54.8336C53.5443 1.91927 52.4337 2.91019 52.3731 4.19949C52.3077 5.57496 53.4039 6.71108 54.765 6.71108H64.5704C66.5953 6.71108 67.9165 8.84768 67.0006 10.6524C66.9895 10.6731 66.9799 10.6939 66.9687 10.7146C66.5092 11.6321 65.5677 12.2098 64.5401 12.2098H51.9933C50.704 12.2098 49.5934 13.2007 49.5328 14.49C49.4674 15.8654 50.5636 17.0016 51.9247 17.0016H63.8045C64.5242 17.0016 65.0986 17.5983 65.0715 18.318C65.0459 18.9993 64.4859 19.5371 63.8045 19.5371L63.8061 19.5387ZM78.2756 7.92857C78.4416 5.35156 80.5351 3.26123 83.1121 3.10007C86.238 2.9054 88.8119 5.48081 88.614 8.60673C88.4512 11.1853 86.3593 13.2773 83.7791 13.44C80.6484 13.6379 78.0714 11.0561 78.274 7.92698L78.2756 7.92857ZM67.9118 16.1814C67.7187 13.0555 70.2941 10.4832 73.42 10.6811C76.0002 10.8439 78.0921 12.9374 78.2533 15.5176C78.4496 18.6483 75.8662 21.2237 72.7371 21.0211C70.1601 20.8535 68.0713 18.76 67.9102 16.183L67.9118 16.1814ZM81.9425 28.0819C81.7797 30.6605 79.6878 32.7524 77.1092 32.9152C73.9785 33.1131 71.3983 30.5313 71.601 27.4022C71.7685 24.8235 73.862 22.7348 76.4406 22.5736C79.5665 22.379 82.1388 24.956 81.9425 28.0819ZM83.7424 20.6748C82.5664 20.8711 81.5611 19.8706 81.751 18.6946C81.8659 17.9829 82.4372 17.4069 83.1488 17.2872C84.3248 17.0909 85.3333 18.0898 85.1434 19.2674C85.0285 19.9807 84.4557 20.5567 83.7424 20.6764V20.6748ZM95.2919 28.0787C95.1307 30.6573 93.0404 32.7508 90.4618 32.9152C87.3311 33.1163 84.7509 30.5345 84.9519 27.4053C85.1163 24.8283 87.2066 22.7364 89.7836 22.5736C92.908 22.3758 95.4866 24.9528 95.2919 28.0787ZM93.8095 21.0322C90.9469 21.0322 88.6268 18.7121 88.6268 15.8527C88.6268 12.9932 91.1495 10.4737 94.1797 10.6843C96.736 10.8614 98.8056 12.9342 98.9795 15.4905C99.1853 18.5174 96.7902 21.0338 93.8111 21.0338L93.8095 21.0322Z" fill="#9534D2"/>
<rect x="54.582" y="33.05" width="6.42883" height="4.28589" rx="2.14294" fill="#9534D2"/>
<rect x="41.9031" y="1.97754" width="8.03604" height="4.64304" rx="2.27732" fill="#9534D2"/>
</g>
<defs>
<clipPath id="clip0_75_10303">
<rect width="102" height="39.142" fill="white" transform="translate(0.5 0.0410156)"/>
</clipPath>
</defs>
</svg>
